# xmcd
#
# Track frame offsets:
#	150
#	18467
#	39247
#	60414
#	79571
#	110267
#	133718
#	156172
#	179222
#	200536
#	222804
#	245290
#
# Disc length: 3647 seconds
#
# Revision: 0
# Processed by: cddbd v1.4PL0 Copyright (c) Steve Scherf et al.
# Submitted via: EasyCDDAExtractor 4.6.0.1
#
DISCID=9c0e3d0c
DTITLE=Chiesa Evangelica di Palmi - Come una Rosa
DYEAR=2001
DGENRE=Gospel
TTITLE0=Gesù verrà
TTITLE1=Ogni Tua Promessa
TTITLE2=Che Grande Amor
TTITLE3=Gesù Ti Amo
TTITLE4=Noi Alzeremo Mani Sante
TTITLE5=Ei Morì
TTITLE6=Kadosh
TTITLE7=Shalom Jerusalem
TTITLE8=Nel Giardin
TTITLE9=Egli è
TTITLE10=Cristo è la roccia
TTITLE11=Si Signor
EXTD=
EXTT0=
EXTT1=
EXTT2=
EXTT3=
EXTT4=
EXTT5=
EXTT6=
EXTT7=
EXTT8=
EXTT9=
EXTT10=
EXTT11=
PLAYORDER=
